<mxfile host="www.draw.io" modified="2019-12-09T17:41:11.400Z" agent="Mozilla/5.0 (Windows NT 10.0; Win64; x64; rv:71.0) Gecko/20100101 Firefox/71.0" etag="nhF3lHIHjqWhIkauCmzC" version="12.3.8" type="github" pages="1">
  <diagram id="iAddZWvFGMk7vTQR6qSQ" name="Page-1">
    <mxGraphModel dx="1024" dy="571" grid="1" gridSize="10" guides="1" tooltips="1" connect="1" arrows="1" fold="1" page="1" pageScale="1" pageWidth="850" pageHeight="1100" math="0" shadow="0">
      <root>
        <mxCell id="0"/>
        <mxCell id="1" parent="0"/>
        <mxCell id="EbhHwmLPmSm0Ai14x9Zb-4" value="" style="edgeStyle=orthogonalEdgeStyle;rounded=0;orthogonalLoop=1;jettySize=auto;html=1;" parent="1" source="EbhHwmLPmSm0Ai14x9Zb-1" target="EbhHwmLPmSm0Ai14x9Zb-3" edge="1">
          <mxGeometry relative="1" as="geometry"/>
        </mxCell>
        <mxCell id="EbhHwmLPmSm0Ai14x9Zb-1" value="Pick Lawyer" style="ellipse;whiteSpace=wrap;html=1;strokeColor=#B09500;fillColor=#e3c800;fontColor=#ffffff;" parent="1" vertex="1">
          <mxGeometry x="60" y="100" width="120" height="80" as="geometry"/>
        </mxCell>
        <mxCell id="EbhHwmLPmSm0Ai14x9Zb-6" value="" style="edgeStyle=orthogonalEdgeStyle;rounded=0;orthogonalLoop=1;jettySize=auto;html=1;" parent="1" source="EbhHwmLPmSm0Ai14x9Zb-3" target="EbhHwmLPmSm0Ai14x9Zb-5" edge="1">
          <mxGeometry relative="1" as="geometry"/>
        </mxCell>
        <mxCell id="EbhHwmLPmSm0Ai14x9Zb-3" value="Does the Lawyer Want Your Case?" style="ellipse;whiteSpace=wrap;html=1;" parent="1" vertex="1">
          <mxGeometry x="260" y="100" width="120" height="80" as="geometry"/>
        </mxCell>
        <mxCell id="EbhHwmLPmSm0Ai14x9Zb-10" value="" style="edgeStyle=orthogonalEdgeStyle;rounded=0;orthogonalLoop=1;jettySize=auto;html=1;" parent="1" source="EbhHwmLPmSm0Ai14x9Zb-5" target="EbhHwmLPmSm0Ai14x9Zb-9" edge="1">
          <mxGeometry relative="1" as="geometry"/>
        </mxCell>
        <mxCell id="EbhHwmLPmSm0Ai14x9Zb-5" value="Can they trust you?" style="ellipse;whiteSpace=wrap;html=1;" parent="1" vertex="1">
          <mxGeometry x="460" y="100" width="120" height="80" as="geometry"/>
        </mxCell>
        <mxCell id="EbhHwmLPmSm0Ai14x9Zb-13" value="" style="edgeStyle=orthogonalEdgeStyle;rounded=0;orthogonalLoop=1;jettySize=auto;html=1;" parent="1" source="EbhHwmLPmSm0Ai14x9Zb-9" target="EbhHwmLPmSm0Ai14x9Zb-12" edge="1">
          <mxGeometry relative="1" as="geometry"/>
        </mxCell>
        <mxCell id="EbhHwmLPmSm0Ai14x9Zb-9" value="Can they trust you?" style="ellipse;whiteSpace=wrap;html=1;" parent="1" vertex="1">
          <mxGeometry x="660" y="100" width="120" height="80" as="geometry"/>
        </mxCell>
        <mxCell id="EbhHwmLPmSm0Ai14x9Zb-15" value="" style="edgeStyle=orthogonalEdgeStyle;rounded=0;orthogonalLoop=1;jettySize=auto;html=1;" parent="1" source="EbhHwmLPmSm0Ai14x9Zb-12" target="EbhHwmLPmSm0Ai14x9Zb-14" edge="1">
          <mxGeometry relative="1" as="geometry"/>
        </mxCell>
        <mxCell id="EbhHwmLPmSm0Ai14x9Zb-12" value="Are the stakes of the case within reason?" style="ellipse;whiteSpace=wrap;html=1;" parent="1" vertex="1">
          <mxGeometry x="660" y="260" width="120" height="80" as="geometry"/>
        </mxCell>
        <mxCell id="EbhHwmLPmSm0Ai14x9Zb-20" value="" style="edgeStyle=orthogonalEdgeStyle;rounded=0;orthogonalLoop=1;jettySize=auto;html=1;" parent="1" source="EbhHwmLPmSm0Ai14x9Zb-14" target="EbhHwmLPmSm0Ai14x9Zb-19" edge="1">
          <mxGeometry relative="1" as="geometry"/>
        </mxCell>
        <mxCell id="EbhHwmLPmSm0Ai14x9Zb-14" value="Are the stakes of the case within reason?" style="ellipse;whiteSpace=wrap;html=1;" parent="1" vertex="1">
          <mxGeometry x="460" y="260" width="120" height="80" as="geometry"/>
        </mxCell>
        <mxCell id="EbhHwmLPmSm0Ai14x9Zb-23" value="" style="edgeStyle=orthogonalEdgeStyle;rounded=0;orthogonalLoop=1;jettySize=auto;html=1;" parent="1" source="EbhHwmLPmSm0Ai14x9Zb-24" target="EbhHwmLPmSm0Ai14x9Zb-22" edge="1">
          <mxGeometry relative="1" as="geometry"/>
        </mxCell>
        <mxCell id="EbhHwmLPmSm0Ai14x9Zb-19" value="&lt;ul&gt;&lt;li&gt;Pick where you want to sue&lt;/li&gt;&lt;li&gt;How much to sue for&lt;/li&gt;&lt;li&gt;Together with your Lawyer&lt;br&gt;&lt;/li&gt;&lt;/ul&gt;" style="ellipse;whiteSpace=wrap;html=1;" parent="1" vertex="1">
          <mxGeometry x="190" y="210" width="210" height="180" as="geometry"/>
        </mxCell>
        <mxCell id="EbhHwmLPmSm0Ai14x9Zb-22" value="&lt;font style=&quot;font-size: 25px&quot;&gt;&lt;b&gt;Malpractice&lt;/b&gt;&lt;/font&gt;" style="ellipse;whiteSpace=wrap;html=1;fillColor=#e51400;strokeColor=#B20000;fontColor=#ffffff;" parent="1" vertex="1">
          <mxGeometry x="190" y="470" width="210" height="180" as="geometry"/>
        </mxCell>
        <mxCell id="EbhHwmLPmSm0Ai14x9Zb-2" value="Start Here" style="text;html=1;align=center;verticalAlign=middle;resizable=0;points=[];;autosize=1;fillColor=#d5e8d4;strokeColor=#FFFF00;gradientColor=none;shadow=1;rounded=1;comic=1;glass=1;" parent="1" vertex="1">
          <mxGeometry x="85" y="70" width="70" height="20" as="geometry"/>
        </mxCell>
        <mxCell id="EbhHwmLPmSm0Ai14x9Zb-7" value="Yes" style="text;html=1;align=center;verticalAlign=middle;resizable=0;points=[];;autosize=1;fillColor=#d5e8d4;strokeColor=#82b366;" parent="1" vertex="1">
          <mxGeometry x="405" y="120" width="30" height="20" as="geometry"/>
        </mxCell>
        <mxCell id="EbhHwmLPmSm0Ai14x9Zb-11" value="Yes" style="text;html=1;align=center;verticalAlign=middle;resizable=0;points=[];;autosize=1;fillColor=#d5e8d4;strokeColor=#82b366;" parent="1" vertex="1">
          <mxGeometry x="600" y="120" width="30" height="20" as="geometry"/>
        </mxCell>
        <mxCell id="EbhHwmLPmSm0Ai14x9Zb-17" value="Yes" style="text;html=1;align=center;verticalAlign=middle;resizable=0;points=[];;autosize=1;fillColor=#d5e8d4;strokeColor=#82b366;" parent="1" vertex="1">
          <mxGeometry x="730" y="210" width="30" height="20" as="geometry"/>
        </mxCell>
        <mxCell id="EbhHwmLPmSm0Ai14x9Zb-18" value="Yes" style="text;html=1;align=center;verticalAlign=middle;resizable=0;points=[];;autosize=1;fillColor=#d5e8d4;strokeColor=#82b366;" parent="1" vertex="1">
          <mxGeometry x="610" y="280" width="30" height="20" as="geometry"/>
        </mxCell>
        <mxCell id="EbhHwmLPmSm0Ai14x9Zb-21" value="Yes" style="text;html=1;align=center;verticalAlign=middle;resizable=0;points=[];;autosize=1;fillColor=#d5e8d4;strokeColor=#82b366;" parent="1" vertex="1">
          <mxGeometry x="415" y="280" width="30" height="20" as="geometry"/>
        </mxCell>
        <mxCell id="EbhHwmLPmSm0Ai14x9Zb-24" value="Lawyer Makes a Decision without Consulting Client" style="text;html=1;align=center;verticalAlign=middle;resizable=0;points=[];;autosize=1;fillColor=#e51400;strokeColor=#B20000;fontColor=#ffffff;" parent="1" vertex="1">
          <mxGeometry x="155" y="420" width="280" height="20" as="geometry"/>
        </mxCell>
        <mxCell id="EbhHwmLPmSm0Ai14x9Zb-25" value="" style="edgeStyle=orthogonalEdgeStyle;rounded=0;orthogonalLoop=1;jettySize=auto;html=1;" parent="1" source="EbhHwmLPmSm0Ai14x9Zb-19" target="EbhHwmLPmSm0Ai14x9Zb-24" edge="1">
          <mxGeometry relative="1" as="geometry">
            <mxPoint x="295" y="390" as="sourcePoint"/>
            <mxPoint x="295" y="470" as="targetPoint"/>
          </mxGeometry>
        </mxCell>
      </root>
    </mxGraphModel>
  </diagram>
</mxfile>
